<?xml version="1.0" encoding="utf-8"?>
<!-- Svg Vector Icons : http://www.onlinewebfonts.com/icon -->
<!DOCTYPE svg PUBLIC "-//W3C//DTD SVG 1.1//EN" "http://www.w3.org/Graphics/SVG/1.1/DTD/svg11.dtd">
<svg version="1.1" xmlns="http://www.w3.org/2000/svg" xmlns:xlink="http://www.w3.org/1999/xlink" x="0px" y="0px" viewBox="0 0 256 256" enable-background="new 0 0 256 256" xml:space="preserve">
<metadata> Svg Vector Icons : http://www.onlinewebfonts.com/icon </metadata>
<g><g><g><path fill="#000000" d="M56,50c-20.9,2.9-37.9,17-44.3,36.7c-1.6,4.7-1.7,5.9-1.7,14.4c-0.1,10.8,0.7,14.1,4.8,22.7c9.2,19,27.9,30.6,50.2,31.1l6.9,0.2l0.4,2.3c1.3,7.4-3.4,22.3-12.7,40.3c-4.5,8.6-4.7,9.1-3.1,8.5c2.5-1,12.3-9.1,19.4-16.2c35-34.9,51.7-78.9,40.5-106.9c-4.2-10.5-15-21.6-26.6-27.5C80.1,50.8,66.4,48.5,56,50z"/><path fill="#000000" d="M182.2,50c-16.9,2.2-32.4,12.7-40.5,27.7c-6.9,12.7-7.8,29.6-2.1,43.1c3.8,9.2,11.5,18.6,19.4,24c10,6.7,19.8,9.8,32.2,10.1l6.9,0.2l0.4,2.3c1.3,7.5-3.2,21.9-12.8,40.3c-4.5,8.6-4.7,9.1-3.2,8.5c3.8-1.4,18-14.1,26-23.1c34.3-38.7,46.5-81.8,30.1-107.2C226.9,57.6,204.2,47.2,182.2,50z"/></g></g></g>
</svg>